<svg xmlns="http://www.w3.org/2000/svg" version="1.1" xmlns:xlink="http://www.w3.org/1999/xlink" xmlns:svgjs="http://svgjs.dev/svgjs" width="1500" height="1500" viewBox="0 0 1500 1500"><g transform="matrix(1,0,0,1,-0.323615160350073,-0.3236151603499593)"><svg viewBox="0 0 343 343" data-background-color="#ffffff" preserveAspectRatio="xMidYMid meet" height="1500" width="1500" xmlns="http://www.w3.org/2000/svg" xmlns:xlink="http://www.w3.org/1999/xlink"><g id="tight-bounds" transform="matrix(1,0,0,1,0.0740000000000407,0.07400000000001228)"><svg viewBox="0 0 342.85155851775386 342.85155851775386" height="342.85155851775386" width="342.85155851775386"><g><svg></svg></g><g><svg viewBox="0 0 342.85155851775386 342.85155851775386" height="342.85155851775386" width="342.85155851775386"><g><path d="M0 171.426c0-94.676 76.75-171.426 171.426-171.426 94.676 0 171.426 76.75 171.426 171.426 0 94.676-76.75 171.426-171.426 171.426-94.676 0-171.426-76.75-171.426-171.426zM171.426 337.837c91.907 0 166.412-74.505 166.411-166.411 0-91.907-74.505-166.412-166.411-166.412-91.907 0-166.412 74.505-166.412 166.412 0 91.907 74.505 166.412 166.412 166.411z" data-fill-palette-color="tertiary" fill="#e04e2f" stroke="transparent"></path><ellipse rx="164.56874808852186" ry="164.56874808852186" cx="171.42577925887693" cy="171.42577925887693" fill="#e04e2f" stroke="transparent" stroke-width="0" fill-opacity="1" data-fill-palette-color="tertiary"></ellipse></g><g transform="matrix(1,0,0,1,64.84655864529837,98.64278570413238)"><svg viewBox="0 0 213.1584412271571 145.5659871094891" height="145.5659871094891" width="213.1584412271571"><g><svg viewBox="0 0 213.1584412271571 145.5659871094891" height="145.5659871094891" width="213.1584412271571"><g><svg viewBox="0 0 213.1584412271571 145.5659871094891" height="145.5659871094891" width="213.1584412271571"><g transform="matrix(1,0,0,1,0,89.96561985143812)"><svg viewBox="0 0 213.1584412271571 55.60036725805099" height="55.60036725805099" width="213.1584412271571"><g id="textblocktransform"><svg viewBox="0 0 213.1584412271571 55.60036725805099" height="55.60036725805099" width="213.1584412271571" id="textblock"><g><svg viewBox="0 0 213.1584412271571 55.60036725805099" height="55.60036725805099" width="213.1584412271571"><g transform="matrix(1,0,0,1,0,0)"><svg width="213.1584412271571" viewBox="4.49 -37.94 146.38 38.18" height="55.60036725805099" data-palette-color="#ffffff"><path d="M4.49 0L4.49-35.99 10.45-35.99 20.12-13.77 20.12-4.74 18.55-4.74 10.45-24.76 10.45 0 4.49 0ZM22.12-13.67L31.79-35.99 37.74-35.99 37.74 0 31.79 0 31.79-24.76 23.73-4.74 22.12-4.74 22.12-13.67ZM51.22-8.3L51.22-8.3Q51.22-6.1 52.12-5.03 53.02-3.96 54.73-3.76L54.73-3.76 54.73 0.2Q54.54 0.24 54.1 0.24L54.1 0.24Q52.44 0.24 50.9-0.2 49.36-0.63 48.19-1.61 47.02-2.59 46.36-4.2 45.7-5.81 45.7-8.15L45.7-8.15Q45.7-10.4 46.65-12.04 47.6-13.67 49.09-14.72 50.58-15.77 52.49-16.28 54.39-16.8 56.35-16.8L56.35-16.8 58.49-16.8 58.49-13.33 57.42-13.33Q56.44-13.33 55.37-13.13 54.29-12.94 53.37-12.4 52.44-11.87 51.83-10.86 51.22-9.86 51.22-8.3ZM66.4-8.54L66.4-8.15Q66.4-7.76 66.45-7.01 66.5-6.25 66.65-5.47 66.79-4.69 67.11-4.05 67.43-3.42 67.97-3.22L67.97-3.22 66.4 0.05Q65.77 0.05 65.06-0.24 64.35-0.54 63.69-1.07 63.03-1.61 62.57-2.27 62.11-2.93 61.86-3.71L61.86-3.71Q61.37-2.49 59.93-1.54 58.49-0.59 56.74-0.15L56.74-0.15 56.74-3.86Q57.91-4.1 58.86-4.81 59.81-5.52 60.5-6.49L60.5-6.49 60.5-16.8Q60.5-19.19 60.25-20.61 60.01-22.02 59.42-22.68 58.84-23.34 57.98-23.51 57.13-23.68 55.95-23.68L55.95-23.68Q54.88-23.68 53.93-23.41 52.98-23.14 52.17-22.78 51.36-22.41 50.75-21.97 50.14-21.53 49.85-21.29L49.85-21.29 47.65-24.66Q48.14-25.2 49.12-25.76 50.1-26.32 51.36-26.76 52.63-27.2 54.12-27.47 55.61-27.73 57.22-27.73L57.22-27.73Q58.69-27.73 60.08-27.44 61.47-27.15 62.62-26.46 63.77-25.78 64.62-24.63 65.48-23.49 65.82-21.78L65.82-21.78Q66.16-20.07 66.28-18.33 66.4-16.6 66.4-14.89L66.4-14.89 66.4-8.54ZM75.73-27.54L81-27.54 81.64-24.71 81.64-9.77 81.64-9.67 81.64 0 75.73 0 75.73-27.54ZM83.64-21.34L83.64-26.32Q84.86-27 86.57-27.37 88.28-27.73 91.21-27.73L91.21-27.73 91.21-21.58Q89.84-21.97 87.89-22.02L87.89-22.02Q86.81-22.02 85.71-21.85 84.61-21.68 83.64-21.34L83.64-21.34ZM118.94-27.54L109.27-13.82 120.21 0 113.47 0 105.46-10.55 105.46-17.33 112.3-27.54 118.94-27.54ZM103.46 0L97.5 0 97.5-37.94 103.46-37.94 103.46 0ZM139.15-23.1L139.15-27.69Q141.84-27.54 144.03-26.39 146.23-25.24 147.72-23.36 149.21-21.48 150.04-18.99 150.87-16.5 150.87-13.67L150.87-13.67Q150.87-10.84 150.01-8.37 149.16-5.91 147.65-4.08 146.13-2.25 143.94-1.12 141.74 0 139.15 0.2L139.15 0.2 139.15-4.49Q141.59-5.03 143.13-7.57 144.67-10.11 144.67-13.67L144.67-13.67Q144.67-15.48 144.3-17.07 143.94-18.65 143.2-19.92 142.47-21.19 141.45-22.02 140.42-22.85 139.15-23.1L139.15-23.1ZM125.53-13.77L125.53-13.77Q125.53-16.6 126.36-19.04 127.19-21.48 128.73-23.32 130.26-25.15 132.41-26.27 134.56-27.39 137.15-27.64L137.15-27.64 137.15-23.1Q134.71-22.56 133.24-20.02 131.78-17.48 131.78-13.92L131.78-13.92Q131.78-12.11 132.14-10.5 132.51-8.89 133.19-7.62 133.88-6.35 134.88-5.52 135.88-4.69 137.15-4.49L137.15-4.49 137.15 0.2Q134.46 0 132.31-1.15 130.17-2.29 128.65-4.15 127.14-6.01 126.33-8.5 125.53-10.99 125.53-13.77Z" opacity="1" transform="matrix(1,0,0,1,0,0)" fill="#ffffff" class="wordmark-text-0" data-fill-palette-color="quaternary" id="text-0"></path></svg></g></svg></g></svg></g></svg></g><g transform="matrix(1,0,0,1,67.83972570302663,0)"><svg viewBox="0 0 77.47898982110387 76.83970755062647" height="76.83970755062647" width="77.47898982110387"><g><svg xmlns="http://www.w3.org/2000/svg" xmlns:xlink="http://www.w3.org/1999/xlink" version="1.1" x="0" y="0" viewBox="0.7534958055897395 0.8368608799048752 46.648033929808186 46.263139120095126" enable-background="new 0 0 48 48" xml:space="preserve" height="76.83970755062647" width="77.47898982110387" class="icon-icon-0" data-fill-palette-color="quaternary" id="icon-0"><g fill="#ffffff" data-fill-palette-color="quaternary"><g fill="#ffffff" data-fill-palette-color="quaternary"><g fill="#ffffff" data-fill-palette-color="quaternary"><path fill="#ffffff" d="M0.9 2.4C1.3 11.2 1.3 20.1 1.3 29 1.3 31.1 0.5 40.5 4.2 40.7 12.9 41.3 21.8 40.8 30.5 40.8 32.9 40.8 45.2 42.3 46.1 39 48.2 31.7 47.2 22.9 46.9 15.4 46.7 11.2 46.5 6.9 46.3 2.7 46.3 1.8 45.9 1.6 45.1 1.4 41.7 0.4 36.9 1.3 33.4 1.2 28.9 1.1 24.4 1.1 19.9 1 15.4 1.1 10.9 1 6.4 1 4.7 1 2.2 0.3 0.9 1.8 0.4 2.3 1.3 3.2 1.8 2.6 2.9 1.4 8.8 2.2 10.3 2.3 13.5 2.3 16.7 2.4 19.9 2.4L39.2 2.7C40.5 2.7 41.8 2.7 43.1 2.8 45.9 2.8 45.3 6.7 45.4 8.3 45.6 11.4 45.7 14.4 45.8 17.5 46.1 23.7 46.1 30 45.5 36.2 45 41.6 30.1 39.8 26.7 39.8H7.3C2.2 39.8 2.9 35.1 2.7 31.2 2.6 28 2.7 24.8 2.7 21.6 2.7 15.3 2.5 8.9 2.3 2.6 2.2 1.5 0.9 1.5 0.9 2.4" data-fill-palette-color="quaternary"></path></g></g><g fill="#ffffff" data-fill-palette-color="quaternary"><g fill="#ffffff" data-fill-palette-color="quaternary"><path fill="#ffffff" d="M17.2 10.2C15.6 11.6 13.4 12.3 11.7 13.5 10.7 14.2 8.8 15.6 8.4 16.9 8.2 17.8 9.3 18.3 9.9 18.7 12.3 20.2 14.4 22 16.3 24 16.9 24.6 17.7 23.7 17.2 23.1 16 21.9 14.8 20.7 13.5 19.6 13 19.2 9.7 17.2 10.2 16.5 12.4 13.9 15.7 13.1 18.2 10.9 18.7 10.5 17.8 9.6 17.2 10.2" data-fill-palette-color="quaternary"></path></g></g><g fill="#ffffff" data-fill-palette-color="quaternary"><g fill="#ffffff" data-fill-palette-color="quaternary"><path fill="#ffffff" d="M27.2 6.7C24.5 13.9 22 21.2 19.6 28.6 19.3 29.4 20.6 29.7 20.8 28.9 23.2 21.6 25.7 14.3 28.4 7 28.7 6.3 27.5 5.9 27.2 6.7" data-fill-palette-color="quaternary"></path></g></g><g fill="#ffffff" data-fill-palette-color="quaternary"><g fill="#ffffff" data-fill-palette-color="quaternary"><path fill="#ffffff" d="M29.3 11.6C30.8 12.7 32.2 13.9 33.7 15 34.6 15.7 35.5 16.4 36.3 17.1 37.6 18.1 37 18 35.9 18.8 33.5 20.5 31.6 22.7 29.9 25.1 29.4 25.8 30.5 26.4 31 25.7 32.4 23.7 34.1 21.9 36 20.3 36.4 20 38.7 18.8 38.7 17.9 38.7 16.7 37.2 16 36.4 15.4 34.3 13.8 32.3 12.2 30.2 10.6 29.5 10.2 28.6 11.1 29.3 11.6" data-fill-palette-color="quaternary"></path></g></g><g fill="#ffffff" data-fill-palette-color="quaternary"><g fill="#ffffff" data-fill-palette-color="quaternary"><path fill="#ffffff" d="M2.3 31.9C17.1 32.2 31.8 32.1 46.6 31.6 47.4 31.6 47.4 30.3 46.6 30.3 31.8 30.9 17.1 31 2.3 30.6 1.5 30.6 1.5 31.9 2.3 31.9" data-fill-palette-color="quaternary"></path></g></g><g fill="#ffffff" data-fill-palette-color="quaternary"><g fill="#ffffff" data-fill-palette-color="quaternary"><path fill="#ffffff" d="M21.1 36.6H24.4C25.2 36.6 25.2 35.3 24.4 35.3H21.1C20.3 35.4 20.3 36.6 21.1 36.6" data-fill-palette-color="quaternary"></path></g></g><g fill="#ffffff" data-fill-palette-color="quaternary"><g fill="#ffffff" data-fill-palette-color="quaternary"><path fill="#ffffff" d="M23.8 40.3C23.5 42.1 23.4 43.9 23.6 45.8 23.7 46.6 24.9 46.6 24.9 45.8 24.7 44.1 24.7 42.4 25 40.7 25.2 39.8 24 39.5 23.8 40.3" data-fill-palette-color="quaternary"></path></g></g><g fill="#ffffff" data-fill-palette-color="quaternary"><g fill="#ffffff" data-fill-palette-color="quaternary"><path fill="#ffffff" d="M15.1 47.1H35.7C36.5 47.1 36.5 45.8 35.7 45.8H15.1C14.3 45.8 14.3 47.1 15.1 47.1" data-fill-palette-color="quaternary"></path></g></g></g></svg></g></svg></g><g></g></svg></g></svg></g></svg></g></svg></g><defs></defs></svg><rect width="342.85155851775386" height="342.85155851775386" fill="none" stroke="none" visibility="hidden"></rect></g></svg></g></svg>